<svg width="32" height="16" viewBox="0 0 32 16" fill="none" xmlns="http://www.w3.org/2000/svg">
<g clip-path="url(#clip0_1465_20812)">
<path d="M11.6062 6.32444H12.489L12.8623 4.64012H13.9867L13.6134 6.32444H14.2831L14.0987 7.15233H13.4289L12.4649 11.5048H11.3405L12.3068 7.15233H11.424L11.6084 6.32444H11.6062ZM14.4654 5.11885H16.9271L17.0325 4.63792H18.1766L18.0712 5.11885H18.8332C18.8025 5.00465 18.7608 4.89705 18.7103 4.79384L19.8654 4.60938C19.9312 4.76309 19.9774 4.93219 20.0037 5.11885H20.6076L20.4495 5.82815H17.9131L17.8538 6.09387H19.9444L19.38 8.63683C19.3251 8.88717 19.1539 9.04308 18.8684 9.10238L18.8267 9.28684H19.7468L19.5711 10.0774H18.651L18.4863 10.824C18.3809 11.2962 18.069 11.5333 17.5486 11.5333H16.0904L16.1366 10.6989C16.7383 10.7186 17.0808 10.7274 17.1621 10.7274C17.318 10.7274 17.4058 10.6703 17.4322 10.5583L17.5376 10.0774H15.2977C15.57 10.2443 15.8159 10.4222 16.0355 10.6088L14.9793 11.1776C14.7641 10.9163 14.4215 10.6374 13.9472 10.3431L14.5071 10.0774H13.1873L13.363 9.28684H17.7111L17.7462 9.13092H17.4761V8.50946L18.0163 8.53801C18.214 8.53801 18.3216 8.49848 18.3391 8.41942L18.3501 8.36672H17.3466L17.2148 8.95744H16.0707L16.2024 8.36672H15.0869L14.9244 9.09798H13.8374L14.5049 6.08947H16.7075L16.7668 5.82376H14.3051L14.4632 5.11445L14.4654 5.11885ZM15.2186 7.80235H16.3342L16.3935 7.53663H15.2779L15.2186 7.80235ZM15.4009 6.98105H16.5165L16.5758 6.71533H15.4602L15.4009 6.98105ZM17.5354 7.53444L17.4761 7.80015H18.4797L18.539 7.53444H17.5354ZM17.7177 6.71314L17.6584 6.97885H18.662L18.7212 6.71314H17.7177Z" fill="#2953A4"/>
<path d="M22.1909 9.6426L23.1001 9.93906C22.6784 10.5254 22.136 11.0568 21.4728 11.5355L20.6054 10.9668C21.3125 10.5188 21.8396 10.0774 22.1909 9.6448V9.6426ZM22.0108 5.2594H22.5774L22.7267 4.58743H23.7962L23.6469 5.2594H25.0962L25.2455 4.58743H26.3326L26.1832 5.2594H26.7322L26.5544 6.06533H26.0054L25.4102 8.74884H25.8846L25.7001 9.58331H20.915L21.0995 8.74884H21.8066L22.4017 6.06533H21.8352L22.013 5.2594H22.0108ZM22.8739 8.74664H24.3232L24.4198 8.31183H22.9705L22.8739 8.74664ZM23.1286 7.59374H24.578L24.6702 7.1809H23.2208L23.1286 7.59374ZM24.2727 9.64041C24.5582 9.9171 24.8019 10.2311 25.0018 10.5869L23.9916 11.1183C23.8599 10.7889 23.6359 10.4419 23.3219 10.0774L24.2727 9.64041ZM23.3768 6.47818H24.8261L24.9183 6.06314H23.469L23.3768 6.47818ZM30.2722 4.58523L30.5533 5.50096C29.8066 5.71178 28.9502 5.83256 27.9817 5.8633L27.7336 6.97887H30.2239L30.0284 7.85946H29.2752L28.4671 11.5026H27.3515L28.1596 7.85946H27.536L27.5206 7.92534C27.1495 9.46253 26.5324 10.6637 25.6716 11.5312L24.8283 10.8504C25.5596 10.1213 26.0603 9.14631 26.3326 7.92314L26.9694 5.04859C28.2584 5.04859 29.3586 4.89267 30.27 4.58304L30.2722 4.58523Z" fill="#2953A4"/>
<path d="M17.8319 1.90611C16.2991 1.64918 14.9507 1.44934 12.9019 1.32417C10.3853 0.116377 10.2425 0.0592816 9.38169 0.0197537C9.2697 0.0153617 9.14672 0.0109698 9.00618 0.00438178C6.99026 -0.0922419 5.22468 1.70847 4.7745 2.44413C4.91065 2.33213 6.08112 1.16167 7.45581 1.24512C8.03335 1.28025 9.07425 1.67334 9.51126 2.07959C7.00563 2.70106 5.78466 3.15124 4.2804 4.13504C3.05723 4.93438 2.00755 5.63491 1.30703 6.65604C0.738267 7.44221 1.07206 8.07685 1.40804 8.31621C1.76599 8.57314 2.57412 8.56436 3.27244 7.9956C4.10253 7.25335 4.7745 6.60334 6.01084 5.76667C6.26558 5.59318 6.1448 5.66565 6.40393 5.50095C7.25597 4.95634 8.50549 4.18775 9.80991 3.83858C8.41546 4.92121 6.04598 7.87921 5.12366 10.3563C4.36605 12.3898 4.29797 14.656 4.73717 15.3807C4.7745 15.4444 4.7745 15.4378 4.81183 15.473C4.81622 15.4773 4.84258 15.4993 4.84916 15.5015C5.74293 15.9758 7.2977 14.5572 8.30566 13.6876C9.21919 12.9014 9.94826 12.2251 10.7344 11.2017C10.0844 11.4631 8.47036 12.3393 8.0092 12.135C7.45361 11.8869 7.96528 10.2597 8.11021 9.84682C8.90077 7.82211 10.506 4.29315 15.1615 3.12049C17.8429 2.44633 19.1824 2.69228 22.2129 3.12049C21.688 2.74059 20.1443 2.2948 17.8319 1.90611Z" fill="#2953A4"/>
<path d="M19.8807 12.2404L19.8719 12.5062H20.7503V14.1026H18.8464C18.5455 14.107 18.6004 13.4504 18.6004 13.4504C20.3397 13.5339 19.5886 12.2426 19.5886 12.2426H17.8231L17.7308 12.3437V14.1048H17.3377V12.3349L17.2455 12.2426H15.5809L15.4997 12.3261V14.1048H14.5203C15.3262 13.5778 15.2515 12.9036 15.2515 12.9036C15.2603 12.381 15.0232 12.2448 15.0232 12.2448H11.3866C11.1538 12.3481 11.3053 12.5062 11.3053 12.5062L12.3748 14.107H10.2337V14.4057H12.7262C12.8733 14.3596 12.8272 14.1861 12.8272 14.1861L11.6918 12.5479H13.3015V16.0066H13.6309V12.5567H14.9024C15.3328 13.6722 13.7495 14.107 13.7495 14.107C13.6024 14.2849 13.7671 14.443 13.7671 14.443H17.9482L18.0119 14.3332V12.5589H19.4217C19.6413 13.0903 19.0001 13.1254 19.0001 13.1254H18.3962L18.304 13.2264V13.692C18.4401 14.4606 18.7893 14.443 18.7893 14.443H20.9677L21.0138 14.3881V12.504H21.7363V12.247H19.8785L19.8807 12.2404ZM17.072 14.1005H15.783V12.5413H17.072V14.1005Z" fill="#2953A4"/>
<path d="M21.9889 12.291V14.3398L22.0614 14.4496H24.3254L25.1906 12.7258L26.2052 14.4496H28.5373C28.5373 14.4496 28.6186 14.3903 28.5791 14.2344C28.5373 14.0785 26.629 12.5106 26.629 12.5106H29.2049V14.4496H29.5936V12.5106H31.043V12.2405H26.1152C26.1152 12.2405 26.0163 12.2822 26.0405 12.4008L28.0235 14.1378H26.3501L25.3114 12.2405C25.3114 12.2405 25.1906 12.1504 25.0413 12.2405L24.097 14.1312H22.3468V12.5018H24.1168V12.2009H22.0745L21.9845 12.291H21.9889Z" fill="#2953A4"/>
</g>
<defs>
<clipPath id="clip0_1465_20812">
<rect width="32" height="16" fill="white"/>
</clipPath>
</defs>
</svg>
