<svg width="72" height="16" viewBox="0 0 72 16" fill="none" xmlns="http://www.w3.org/2000/svg">
<path d="M22.4606 2.49828C22.1968 1.51491 21.4196 0.740349 20.4326 0.477527C18.6435 -0.000122038 11.47 -0.000122505 11.47 -0.000122505C11.47 -0.000122505 4.29648 -0.000122038 2.50746 0.477527C1.52053 0.740349 0.743152 1.51491 0.479378 2.49828C0 4.28082 0 7.99981 0 7.99981C0 7.99981 0 11.719 0.479378 13.5014C0.743152 14.4847 1.52053 15.2593 2.50746 15.5221C4.29648 15.9999 11.47 15.9999 11.47 15.9999C11.47 15.9999 18.6435 15.9999 20.4326 15.5221C21.4196 15.2593 22.1968 14.4847 22.4606 13.5014C22.9401 11.719 22.9401 7.99981 22.9401 7.99981C22.9401 7.99981 22.9401 4.28082 22.4606 2.49828Z" fill="#ED1D24"/>
<path d="M9.17621 11.4283L15.136 7.99973L9.17621 4.5711V11.4283Z" fill="white"/>
<path d="M35.8405 12.9859C35.966 12.6592 36.0291 12.1253 36.0291 11.3843V8.26208C36.0291 7.54293 35.966 7.01728 35.8405 6.68481C35.7147 6.35252 35.4932 6.18622 35.1762 6.18622C34.8699 6.18622 34.6537 6.35252 34.5281 6.68481C34.4023 7.01728 34.3395 7.54293 34.3395 8.26208V11.3843C34.3395 12.1253 34.3995 12.6592 34.52 12.9859C34.6401 13.3129 34.8587 13.4762 35.1762 13.4762C35.4932 13.4762 35.7147 13.3129 35.8405 12.9859ZM33.2979 14.5552C32.8437 14.2504 32.521 13.7762 32.3299 13.133C32.1385 12.4903 32.0429 11.6348 32.0429 10.5669V9.11211C32.0429 8.03335 32.1521 7.16694 32.3709 6.51318C32.5896 5.85937 32.9312 5.38276 33.3963 5.08298C33.861 4.78341 34.4707 4.63348 35.2255 4.63348C35.9691 4.63348 36.565 4.78614 37.0135 5.09113C37.4618 5.39621 37.79 5.87312 37.9979 6.52135C38.2054 7.1698 38.3094 8.03335 38.3094 9.11211V10.5669C38.3094 11.6348 38.2082 12.4931 38.006 13.1413C37.8036 13.7897 37.4754 14.2638 37.0216 14.5633C36.5677 14.8629 35.9526 15.0129 35.1762 15.0129C34.3776 15.0129 33.7514 14.8602 33.2979 14.5552" fill="#252323"/>
<path d="M68.4269 6.37377C68.3122 6.51546 68.2354 6.74704 68.1972 7.06837C68.1587 7.3899 68.14 7.87746 68.14 8.53127V9.2505H69.7966V8.53127C69.7966 7.88849 69.7747 7.40085 69.7311 7.06837C69.6873 6.73608 69.6082 6.50194 69.4934 6.3656C69.3784 6.22935 69.2007 6.16122 68.9601 6.16122C68.7194 6.16122 68.5417 6.23221 68.4269 6.37377V6.37377ZM68.14 10.5909V11.0977C68.14 11.7407 68.1587 12.2229 68.1972 12.5442C68.2354 12.8657 68.3145 13.1 68.4352 13.2472C68.5555 13.3941 68.7411 13.4679 68.993 13.4679C69.3317 13.4679 69.5644 13.337 69.6901 13.0754C69.8157 12.8139 69.8841 12.3781 69.895 11.7677L71.8473 11.8822C71.8583 11.9697 71.8638 12.0895 71.8638 12.2417C71.8638 13.1682 71.6096 13.8602 71.1009 14.3178C70.5926 14.7753 69.8731 15.0043 68.9437 15.0043C67.8283 15.0043 67.0461 14.6557 66.5978 13.9581C66.1492 13.261 65.925 12.1821 65.925 10.7217V8.97263C65.925 7.46884 66.1575 6.37119 66.6224 5.67894C67.0871 4.98705 67.8828 4.64105 69.0094 4.64105C69.7857 4.64105 70.3818 4.78274 70.7974 5.066C71.2129 5.34954 71.5056 5.79087 71.6751 6.39001C71.8447 6.98942 71.9295 7.81772 71.9295 8.87458V10.5909H68.14" fill="#252323"/>
<path d="M27.7848 10.4039L25.2091 1.13579H27.4566L28.3588 5.33668C28.5886 6.37214 28.758 7.25476 28.8673 7.98464H28.933C29.0095 7.46165 29.1791 6.58454 29.4416 5.35307L30.3766 1.13579H32.6241L30.0158 10.4039V14.8502H27.7848V10.4039Z" fill="#252323"/>
<path d="M45.6186 4.82971V14.8496H43.8468L43.6498 13.6237H43.6007C43.1194 14.5499 42.3975 15.0129 41.4352 15.0129C40.7681 15.0129 40.276 14.7952 39.9588 14.3591C39.6415 13.9235 39.4831 13.2422 39.4831 12.316V4.82971H41.747V12.1852C41.747 12.6322 41.7963 12.9508 41.8946 13.1414C41.993 13.3323 42.1571 13.4274 42.3867 13.4274C42.5837 13.4274 42.7723 13.3677 42.9527 13.2475C43.1332 13.1277 43.2671 12.9755 43.3547 12.7901V4.82971H45.6186Z" fill="#252323"/>
<path d="M57.2318 4.82971V14.8496H55.46L55.263 13.6237H55.2141C54.7324 14.5499 54.0107 15.0129 53.0484 15.0129C52.3813 15.0129 51.8892 14.7952 51.572 14.3591C51.2547 13.9235 51.0963 13.2422 51.0963 12.316V4.82971H53.3602V12.1852C53.3602 12.6322 53.4093 12.9508 53.5077 13.1414C53.6063 13.3323 53.7703 13.4274 54 13.4274C54.1969 13.4274 54.3856 13.3677 54.5659 13.2475C54.7464 13.1277 54.8803 12.9755 54.9679 12.7901V4.82971H57.2318" fill="#252323"/>
<path d="M51.7706 2.95052H49.5231V14.8502H47.3085V2.95052H45.061V1.13609H51.7706V2.95052" fill="#252323"/>
<path d="M62.6489 10.5184C62.6489 11.2485 62.6185 11.8207 62.5584 12.2346C62.4984 12.649 62.3971 12.9431 62.255 13.1173C62.1128 13.2917 61.9211 13.3788 61.6809 13.3788C61.4947 13.3788 61.3225 13.3354 61.1641 13.248C61.0053 13.1609 60.8771 13.0302 60.7785 12.8556V7.16743C60.855 6.8952 60.9862 6.6717 61.1722 6.4973C61.3582 6.32319 61.5602 6.2358 61.7791 6.2358C62.0089 6.2358 62.1864 6.32577 62.3124 6.50545C62.4379 6.68522 62.5256 6.98765 62.5748 7.41275C62.6241 7.83762 62.6489 8.44242 62.6489 9.22698V10.5184ZM64.7239 6.43123C64.587 5.79939 64.3655 5.34174 64.0594 5.0582C63.7531 4.7751 63.332 4.63333 62.7963 4.63333C62.3807 4.63333 61.9925 4.75055 61.6316 4.9847C61.2708 5.21907 60.9917 5.52695 60.7949 5.90831H60.7783L60.7785 0.628585H58.5967V14.8492H60.4667L60.6965 13.9013H60.7456C60.9205 14.239 61.183 14.506 61.5331 14.7022C61.883 14.8983 62.2714 14.9964 62.698 14.9964C63.4633 14.9964 64.0266 14.6449 64.3876 13.9421C64.7485 13.2391 64.929 12.1415 64.929 10.6484V9.06293C64.929 7.94067 64.8604 7.06344 64.7239 6.43123" fill="#252323"/>
</svg>
